<svg width="42" height="52" viewBox="0 0 42 52" fill="none" xmlns="http://www.w3.org/2000/svg">
<path d="M16.064 20.864C19.952 17.216 23.432 14.168 26.504 11.72C24.008 11.576 20.264 11.264 15.272 10.784C15.656 14.432 15.92 17.792 16.064 20.864ZM41.048 2.432C41.672 2.864 41.984 3.44 41.984 4.16C41.984 5.888 40.52 8.144 37.592 10.928C34.712 13.664 30.608 17.144 25.28 21.368C22.496 23.576 20.384 25.28 18.944 26.48C17.552 27.68 16.688 28.592 16.352 29.216C16.112 29.648 15.944 30.152 15.848 30.728C15.752 31.304 15.704 31.928 15.704 32.6C15.704 33.224 15.68 33.752 15.632 34.184C15.296 36.536 14.912 38.6 14.48 40.376C14.048 42.152 13.544 43.712 12.968 45.056C12.44 46.4 11.696 47.6 10.736 48.656C10.112 49.376 9.392 50.048 8.576 50.672C7.76 51.248 6.992 51.536 6.272 51.536C4.64 51.536 3.824 50.216 3.824 47.576C3.824 46.712 3.896 45.728 4.04 44.624C4.232 43.472 4.352 42.728 4.4 42.392L4.76 40.088C3.704 40.952 2.744 41.384 1.88 41.384C1.304 41.384 0.872 41.192 0.584 40.808C0.296 40.424 0.152 39.896 0.152 39.224C0.152 38.264 0.416 37.28 0.944 36.272C1.376 35.408 2.144 34.376 3.248 33.176C4.112 32.168 4.712 31.4 5.048 30.872C5.432 30.296 5.696 29.672 5.84 29C6.224 26.552 6.416 24.2 6.416 21.944C6.416 20.12 6.32 18.512 6.128 17.12C5.984 15.968 5.768 14.84 5.48 13.736C5.432 13.496 5.288 12.776 5.048 11.576C4.808 10.328 4.688 9.176 4.688 8.12C4.688 3.032 7.568 0.487998 13.328 0.487998C13.952 0.487998 14.888 0.535997 16.136 0.631996C19.208 0.919998 22.88 1.112 27.152 1.208L29.384 1.28L34.64 1.208C37.664 1.208 39.8 1.616 41.048 2.432Z" fill="url(#paint0_linear_1177_30)"/>
<defs>
<linearGradient id="paint0_linear_1177_30" x1="42" y1="-3" x2="9" y2="46" gradientUnits="userSpaceOnUse">
<stop stop-color="#53EAFD"/>
<stop offset="1" stop-color="#BAE3E8"/>
</linearGradient>
</defs>
</svg>
