<svg width="103" height="67" viewBox="0 0 103 67" fill="none" xmlns="http://www.w3.org/2000/svg">
<path d="M17.064 32.864C20.952 29.216 24.432 26.168 27.504 23.72C25.008 23.576 21.264 23.264 16.272 22.784C16.656 26.432 16.92 29.792 17.064 32.864ZM42.048 14.432C42.672 14.864 42.984 15.44 42.984 16.16C42.984 17.888 41.52 20.144 38.592 22.928C35.712 25.664 31.608 29.144 26.28 33.368C23.496 35.576 21.384 37.28 19.944 38.48C18.552 39.68 17.688 40.592 17.352 41.216C17.112 41.648 16.944 42.152 16.848 42.728C16.752 43.304 16.704 43.928 16.704 44.6C16.704 45.224 16.68 45.752 16.632 46.184C16.296 48.536 15.912 50.6 15.48 52.376C15.048 54.152 14.544 55.712 13.968 57.056C13.44 58.4 12.696 59.6 11.736 60.656C11.112 61.376 10.392 62.048 9.576 62.672C8.76 63.248 7.992 63.536 7.272 63.536C5.64 63.536 4.824 62.216 4.824 59.576C4.824 58.712 4.896 57.728 5.04 56.624C5.232 55.472 5.352 54.728 5.4 54.392L5.76 52.088C4.704 52.952 3.744 53.384 2.88 53.384C2.304 53.384 1.872 53.192 1.584 52.808C1.296 52.424 1.152 51.896 1.152 51.224C1.152 50.264 1.416 49.28 1.944 48.272C2.376 47.408 3.144 46.376 4.248 45.176C5.112 44.168 5.712 43.4 6.048 42.872C6.432 42.296 6.696 41.672 6.84 41C7.224 38.552 7.416 36.2 7.416 33.944C7.416 32.12 7.32 30.512 7.128 29.12C6.984 27.968 6.768 26.84 6.48 25.736C6.432 25.496 6.288 24.776 6.048 23.576C5.808 22.328 5.688 21.176 5.688 20.12C5.688 15.032 8.568 12.488 14.328 12.488C14.952 12.488 15.888 12.536 17.136 12.632C20.208 12.92 23.88 13.112 28.152 13.208L30.384 13.28L35.64 13.208C38.664 13.208 40.8 13.616 42.048 14.432Z" fill="url(#paint0_linear_1177_33)"/>
<path d="M31.784 48.488C32.616 47.8267 33.288 47.24 33.8 46.728C34.3333 46.216 34.7387 45.704 35.016 45.192C33.864 44.8933 32.1573 44.4027 29.896 43.72L29.736 50.216C30.376 49.6827 30.7493 49.3627 30.856 49.256L31.784 48.488ZM36.936 52.968C37.1067 52.6267 37.4693 52.3387 38.024 52.104C38.5787 51.848 39.112 51.72 39.624 51.72C40.328 51.72 40.68 51.944 40.68 52.392C40.68 52.52 40.648 52.6693 40.584 52.84C39.7093 54.888 39.048 56.872 38.6 58.792C38.4933 59.2187 38.184 59.6133 37.672 59.976C37.4587 60.2533 37.128 60.488 36.68 60.68C36.2533 60.872 35.8267 60.968 35.4 60.968C35.0373 60.968 34.7387 60.8933 34.504 60.744C34.2907 60.5947 34.1733 60.36 34.152 60.04C34.0667 58.6533 33.608 57.384 32.776 56.232C31.9653 55.08 30.92 54.3333 29.64 53.992L29.48 58.632C29.4587 59.0373 29.1173 59.4107 28.456 59.752C27.816 60.0933 27.1973 60.264 26.6 60.264C26.28 60.264 26.024 60.2107 25.832 60.104C25.64 59.976 25.544 59.784 25.544 59.528L25.64 55.112C25.3627 54.92 25.224 54.696 25.224 54.44C25.224 54.1413 25.384 53.8533 25.704 53.576C25.8107 49.6933 25.9387 45.8213 26.088 41.96C26.1093 41.512 26.408 41.128 26.984 40.808C27.5813 40.4667 28.1787 40.296 28.776 40.296C29.224 40.296 29.544 40.4027 29.736 40.616C32.0613 41.256 34.472 41.96 36.968 42.728C37.352 42.6427 37.6187 42.6 37.768 42.6C38.1307 42.6 38.408 42.6853 38.6 42.856C38.8133 43.0053 38.92 43.24 38.92 43.56C38.92 44.4347 38.632 45.2453 38.056 45.992C37.48 46.7173 36.68 47.528 35.656 48.424L35.016 49C33.992 50.0027 33 50.888 32.04 51.656C33.7893 52.1467 35.1973 53.1173 36.264 54.568C36.3493 54.3547 36.5733 53.8213 36.936 52.968ZM42.0807 42.664C42.1021 42.2373 42.4114 41.864 43.0088 41.544C43.6061 41.2027 44.2034 41.032 44.8008 41.032C45.1421 41.032 45.4194 41.1067 45.6328 41.256C45.8461 41.384 45.9421 41.5973 45.9208 41.896L44.9928 59.272C44.9714 59.72 44.6621 60.1147 44.0648 60.456C43.4674 60.776 42.8701 60.936 42.2728 60.936C41.4834 60.936 41.0994 60.6267 41.1208 60.008L42.0807 42.664ZM42.0168 38.44C41.9741 38.7387 42.0488 38.9627 42.2408 39.112C42.4541 39.2613 42.7314 39.336 43.0728 39.336C43.6488 39.336 44.2354 39.176 44.8328 38.856C45.4301 38.536 45.7608 38.152 45.8248 37.704C45.9954 36.6373 46.1128 35.8373 46.1768 35.304C46.2621 34.7707 45.9314 34.504 45.1848 34.504C44.6088 34.504 44.0114 34.664 43.3928 34.984C42.7741 35.304 42.4434 35.6667 42.4008 36.072L42.0168 38.44ZM56.8063 53.032C57.2969 51.88 57.5423 50.696 57.5423 49.48C57.5423 48.52 57.3716 47.6453 57.0303 46.856C56.7103 46.0453 56.1983 45.384 55.4943 44.872C55.0249 44.5307 54.5769 44.36 54.1503 44.36C53.9796 44.36 53.7663 44.4027 53.5103 44.488C53.7023 44.5733 53.7983 44.7227 53.7983 44.936C53.7983 45.064 53.7556 45.2133 53.6703 45.384C53.1796 46.3227 52.7956 47.3467 52.5183 48.456C52.2409 49.544 52.1023 50.6427 52.1023 51.752C52.1023 53.032 52.2943 54.248 52.6783 55.4C52.9343 56.04 53.2009 56.5413 53.4783 56.904C53.6063 57.0533 53.7343 57.16 53.8623 57.224C54.4809 56.7973 55.0356 56.2 55.5263 55.432C56.0383 54.664 56.4649 53.864 56.8063 53.032ZM56.3583 41.8C57.4036 42.0133 58.2996 42.472 59.0463 43.176C59.7929 43.88 60.3583 44.7333 60.7423 45.736C61.1263 46.7173 61.3183 47.7413 61.3183 48.808C61.3183 50.0667 61.0729 51.3573 60.5823 52.68C60.0916 54.0027 59.4196 55.2187 58.5663 56.328C57.7129 57.4373 56.7636 58.312 55.7183 58.952C54.7369 59.5493 53.7769 59.848 52.8383 59.848C51.8996 59.848 51.0783 59.56 50.3743 58.984C49.6703 58.408 49.1583 57.576 48.8383 56.488C48.4756 55.3787 48.2943 54.1307 48.2943 52.744C48.2943 51.912 48.3583 51.1013 48.4863 50.312C48.3369 50.3547 48.1129 50.376 47.8143 50.376C47.0889 50.376 46.7263 50.1307 46.7263 49.64C46.7263 49.4693 46.7476 49.3307 46.7903 49.224C47.5156 47.1973 48.6036 45.4373 50.0543 43.944C51.5263 42.4293 53.2116 41.672 55.1103 41.672C55.3876 41.672 55.8036 41.7147 56.3583 41.8ZM68.4403 48.488C69.2723 47.8267 69.9443 47.24 70.4563 46.728C70.9896 46.216 71.3949 45.704 71.6723 45.192C70.5203 44.8933 68.8136 44.4027 66.5523 43.72L66.3923 50.216C67.0323 49.6827 67.4056 49.3627 67.5123 49.256L68.4403 48.488ZM73.5923 52.968C73.7629 52.6267 74.1256 52.3387 74.6803 52.104C75.2349 51.848 75.7683 51.72 76.2803 51.72C76.9843 51.72 77.3363 51.944 77.3363 52.392C77.3363 52.52 77.3043 52.6693 77.2403 52.84C76.3656 54.888 75.7043 56.872 75.2563 58.792C75.1496 59.2187 74.8403 59.6133 74.3283 59.976C74.1149 60.2533 73.7843 60.488 73.3363 60.68C72.9096 60.872 72.4829 60.968 72.0563 60.968C71.6936 60.968 71.3949 60.8933 71.1603 60.744C70.9469 60.5947 70.8296 60.36 70.8083 60.04C70.7229 58.6533 70.2643 57.384 69.4323 56.232C68.6216 55.08 67.5763 54.3333 66.2963 53.992L66.1363 58.632C66.1149 59.0373 65.7736 59.4107 65.1123 59.752C64.4723 60.0933 63.8536 60.264 63.2563 60.264C62.9363 60.264 62.6803 60.2107 62.4883 60.104C62.2963 59.976 62.2003 59.784 62.2003 59.528L62.2963 55.112C62.0189 54.92 61.8803 54.696 61.8803 54.44C61.8803 54.1413 62.0403 53.8533 62.3603 53.576C62.4669 49.6933 62.5949 45.8213 62.7443 41.96C62.7656 41.512 63.0643 41.128 63.6403 40.808C64.2376 40.4667 64.8349 40.296 65.4323 40.296C65.8803 40.296 66.2003 40.4027 66.3923 40.616C68.7176 41.256 71.1283 41.96 73.6243 42.728C74.0083 42.6427 74.2749 42.6 74.4243 42.6C74.7869 42.6 75.0643 42.6853 75.2563 42.856C75.4696 43.0053 75.5763 43.24 75.5763 43.56C75.5763 44.4347 75.2883 45.2453 74.7123 45.992C74.1363 46.7173 73.3363 47.528 72.3123 48.424L71.6723 49C70.6483 50.0027 69.6563 50.888 68.6963 51.656C70.4456 52.1467 71.8536 53.1173 72.9203 54.568C73.0056 54.3547 73.2296 53.8213 73.5923 52.968ZM78.737 42.664C78.7583 42.2373 79.0677 41.864 79.665 41.544C80.2623 41.2027 80.8597 41.032 81.457 41.032C81.7983 41.032 82.0757 41.1067 82.289 41.256C82.5023 41.384 82.5983 41.5973 82.577 41.896L81.649 59.272C81.6277 59.72 81.3183 60.1147 80.721 60.456C80.1237 60.776 79.5263 60.936 78.929 60.936C78.1397 60.936 77.7557 60.6267 77.777 60.008L78.737 42.664ZM78.673 38.44C78.6303 38.7387 78.705 38.9627 78.897 39.112C79.1103 39.2613 79.3877 39.336 79.729 39.336C80.305 39.336 80.8917 39.176 81.489 38.856C82.0863 38.536 82.417 38.152 82.481 37.704C82.6517 36.6373 82.769 35.8373 82.833 35.304C82.9183 34.7707 82.5877 34.504 81.841 34.504C81.265 34.504 80.6677 34.664 80.049 34.984C79.4303 35.304 79.0997 35.6667 79.057 36.072L78.673 38.44ZM99.4465 40.68C99.8092 40.68 100.108 40.7653 100.343 40.936C100.577 41.1067 100.694 41.3093 100.694 41.544C100.694 41.736 100.599 41.9493 100.407 42.184C100.449 42.1413 99.9265 42.728 98.8385 43.944C96.5345 46.504 94.8492 48.4667 93.7825 49.832C95.2118 52.008 96.8332 54.152 98.6465 56.264C98.7958 56.4133 98.8705 56.584 98.8705 56.776C98.8705 57.2027 98.5398 57.6187 97.8785 58.024C97.2385 58.408 96.6092 58.6 95.9905 58.6C95.5638 58.6 95.2438 58.4827 95.0305 58.248C93.5585 56.5627 92.2785 54.9413 91.1905 53.384C90.3798 54.536 89.1852 56.2853 87.6065 58.632C87.4358 58.8667 87.1052 59.0693 86.6145 59.24C86.1238 59.3893 85.6332 59.464 85.1425 59.464C84.7798 59.464 84.4812 59.4213 84.2465 59.336C84.0118 59.2293 83.8945 59.08 83.8945 58.888C83.8945 58.7813 83.9585 58.632 84.0865 58.44C86.1985 55.2827 88.0012 52.7333 89.4945 50.792C87.9585 48.3387 86.6572 45.8213 85.5905 43.24C85.5478 43.0693 85.5265 42.952 85.5265 42.888C85.5265 42.44 85.8358 42.0347 86.4545 41.672C87.0732 41.288 87.6918 41.096 88.3105 41.096C88.9932 41.096 89.4198 41.32 89.5905 41.768C90.3372 43.56 91.2225 45.3947 92.2465 47.272C93.9958 45.1813 95.6492 43.336 97.2065 41.736C97.4838 41.4373 97.8252 41.192 98.2305 41C98.6572 40.7867 99.0625 40.68 99.4465 40.68Z" fill="white"/>
<defs>
<linearGradient id="paint0_linear_1177_33" x1="43" y1="9" x2="10" y2="58" gradientUnits="userSpaceOnUse">
<stop stop-color="#53EAFD"/>
<stop offset="1" stop-color="#BAE3E8"/>
</linearGradient>
</defs>
</svg>
